<?xml version="1.0" encoding="UTF-8" standalone="no"?><svg xmlns="http://www.w3.org/2000/svg" xmlns:xlink="http://www.w3.org/1999/xlink" contentStyleType="text/css" height="841px" preserveAspectRatio="none" style="width:527px;height:841px;background:#FFFFFF;" version="1.1" viewBox="0 0 527 841" width="527px" zoomAndPan="magnify"><defs/><g><!--MD5=[b7b14e8444e3c5d78ccf181a2614e889]
cluster pc--><g id="cluster_pc"><rect fill="none" height="146" rx="2.5" ry="2.5" style="stroke:#181818;stroke-width:1.0;" width="335" x="93" y="7"/><rect fill="none" height="10" style="stroke:#181818;stroke-width:1.0;" width="15" x="408" y="12"/><rect fill="none" height="2" style="stroke:#181818;stroke-width:1.0;" width="4" x="406" y="14"/><rect fill="none" height="2" style="stroke:#181818;stroke-width:1.0;" width="4" x="406" y="18"/><text fill="#000000" font-family="sans-serif" font-size="14" font-weight="bold" lengthAdjust="spacing" textLength="130" x="195.5" y="32.9951">PC - Simulating()</text></g><!--MD5=[3d67b846272ab09c325a505f02535bd7]
cluster esp--><g id="cluster_esp"><rect fill="none" height="442" rx="2.5" ry="2.5" style="stroke:#181818;stroke-width:1.0;" width="514" x="7" y="177"/><rect fill="none" height="10" style="stroke:#181818;stroke-width:1.0;" width="15" x="501" y="182"/><rect fill="none" height="2" style="stroke:#181818;stroke-width:1.0;" width="4" x="499" y="184"/><rect fill="none" height="2" style="stroke:#181818;stroke-width:1.0;" width="4" x="499" y="188"/><text fill="#000000" font-family="sans-serif" font-size="14" font-weight="bold" lengthAdjust="spacing" textLength="230" x="149" y="202.9951">ESP32S3 - AudioProcessing()</text></g><!--MD5=[c0077f6813694e07686934813ebe6dec]
cluster simuInteract--><g id="cluster_simuInteract"><rect fill="none" height="130" rx="2.5" ry="2.5" style="stroke:#181818;stroke-width:1.0;" width="286" x="122" y="220"/><rect fill="none" height="10" style="stroke:#181818;stroke-width:1.0;" width="15" x="388" y="225"/><rect fill="none" height="2" style="stroke:#181818;stroke-width:1.0;" width="4" x="386" y="227"/><rect fill="none" height="2" style="stroke:#181818;stroke-width:1.0;" width="4" x="386" y="231"/><text fill="#000000" font-family="sans-serif" font-size="14" font-weight="bold" lengthAdjust="spacing" textLength="87" x="221.5" y="245.9951">Simulation-</text><text fill="#000000" font-family="sans-serif" font-size="14" font-weight="bold" lengthAdjust="spacing" textLength="97" x="216.5" y="262.292">Interacting()</text></g><!--MD5=[e932970d038ebbf457051c8f47705e58]
cluster modHw--><g id="cluster_modHw"><rect fill="none" height="114" rx="2.5" ry="2.5" style="stroke:#181818;stroke-width:1.0;" width="312" x="103" y="481"/><rect fill="none" height="10" style="stroke:#181818;stroke-width:1.0;" width="15" x="395" y="486"/><rect fill="none" height="2" style="stroke:#181818;stroke-width:1.0;" width="4" x="393" y="488"/><rect fill="none" height="2" style="stroke:#181818;stroke-width:1.0;" width="4" x="393" y="492"/><text fill="#000000" font-family="sans-serif" font-size="14" font-weight="bold" lengthAdjust="spacing" textLength="148" x="185" y="506.9951">Hardware Modules</text></g><!--MD5=[a5f6d7e9f88b7365548164145cca9219]
cluster env--><g id="cluster_env"><rect fill="none" height="162" rx="2.5" ry="2.5" style="stroke:#181818;stroke-width:1.0;" width="345" x="91" y="643"/><rect fill="none" height="10" style="stroke:#181818;stroke-width:1.0;" width="15" x="416" y="648"/><rect fill="none" height="2" style="stroke:#181818;stroke-width:1.0;" width="4" x="414" y="650"/><rect fill="none" height="2" style="stroke:#181818;stroke-width:1.0;" width="4" x="414" y="654"/><text fill="#000000" font-family="sans-serif" font-size="14" font-weight="bold" lengthAdjust="spacing" textLength="99" x="214" y="668.9951">Environment</text></g><!--MD5=[7b505e697edd1b38401663ff5952a287]
entity gen--><g id="elem_gen"><rect fill="#F1F1F1" height="95.1875" rx="2.5" ry="2.5" style="stroke:#181818;stroke-width:0.5;" width="146" x="109" y="42"/><rect fill="#F1F1F1" height="10" style="stroke:#181818;stroke-width:0.5;" width="15" x="235" y="47"/><rect fill="#F1F1F1" height="2" style="stroke:#181818;stroke-width:0.5;" width="4" x="233" y="49"/><rect fill="#F1F1F1" height="2" style="stroke:#181818;stroke-width:0.5;" width="4" x="233" y="53"/><text fill="#000000" font-family="sans-serif" font-size="14" lengthAdjust="spacing" textLength="46" x="124" y="74.9951">Signal-</text><text fill="#000000" font-family="sans-serif" font-size="14" lengthAdjust="spacing" textLength="87" x="124" y="91.292">Generating()</text><text fill="#000000" font-family="sans-serif" font-size="14" lengthAdjust="spacing" textLength="39" x="124" y="107.5889">IN_PC</text><text fill="#000000" font-family="sans-serif" font-size="14" lengthAdjust="spacing" textLength="106" x="124" y="123.8857">Pressure: HH/H</text></g><!--MD5=[7dc3992a0919d1d9128bba8bea2deff4]
entity visu--><g id="elem_visu"><rect fill="#F1F1F1" height="78.8906" rx="2.5" ry="2.5" style="stroke:#181818;stroke-width:0.5;" width="122" x="290" y="50"/><rect fill="#F1F1F1" height="10" style="stroke:#181818;stroke-width:0.5;" width="15" x="392" y="55"/><rect fill="#F1F1F1" height="2" style="stroke:#181818;stroke-width:0.5;" width="4" x="390" y="57"/><rect fill="#F1F1F1" height="2" style="stroke:#181818;stroke-width:0.5;" width="4" x="390" y="61"/><text fill="#000000" font-family="sans-serif" font-size="14" lengthAdjust="spacing" textLength="82" x="305" y="82.9951">Visualizing()</text><text fill="#000000" font-family="sans-serif" font-size="14" lengthAdjust="spacing" textLength="56" x="305" y="99.292">OUT_PC</text><text fill="#000000" font-family="sans-serif" font-size="14" lengthAdjust="spacing" textLength="78" x="305" y="115.5889">Pressure: L</text></g><!--MD5=[e136345145b61cd65a89eb6c415139fa]
entity bufIn--><g id="elem_bufIn"><path d="M172.5,404 C172.5,394 212,394 212,394 C212,394 251.5,394 251.5,404 L251.5,445.5938 C251.5,455.5938 212,455.5938 212,455.5938 C212,455.5938 172.5,455.5938 172.5,445.5938 L172.5,404 " fill="#F1F1F1" style="stroke:#181818;stroke-width:0.5;"/><path d="M172.5,404 C172.5,414 212,414 212,414 C212,414 251.5,414 251.5,404 " fill="none" style="stroke:#181818;stroke-width:0.5;"/><text fill="#000000" font-family="sans-serif" font-size="14" lengthAdjust="spacing" textLength="35" x="182.5" y="430.9951">Input</text><text fill="#000000" font-family="sans-serif" font-size="14" lengthAdjust="spacing" textLength="59" x="182.5" y="447.292">Samples</text></g><!--MD5=[ef86aff22a4856bf26edc48518e80162]
entity bufOut--><g id="elem_bufOut"><path d="M426.5,404 C426.5,394 466,394 466,394 C466,394 505.5,394 505.5,404 L505.5,445.5938 C505.5,455.5938 466,455.5938 466,455.5938 C466,455.5938 426.5,455.5938 426.5,445.5938 L426.5,404 " fill="#F1F1F1" style="stroke:#181818;stroke-width:0.5;"/><path d="M426.5,404 C426.5,414 466,414 466,414 C466,414 505.5,414 505.5,404 " fill="none" style="stroke:#181818;stroke-width:0.5;"/><text fill="#000000" font-family="sans-serif" font-size="14" lengthAdjust="spacing" textLength="48" x="436.5" y="430.9951">Output</text><text fill="#000000" font-family="sans-serif" font-size="14" lengthAdjust="spacing" textLength="59" x="436.5" y="447.292">Samples</text></g><!--MD5=[12a9b159d5f578c3da1800f0ab612f08]
entity filt--><g id="elem_filt"><rect fill="#F1F1F1" height="46.2969" rx="2.5" ry="2.5" style="stroke:#181818;stroke-width:0.5;" width="104" x="287" y="402"/><rect fill="#F1F1F1" height="10" style="stroke:#181818;stroke-width:0.5;" width="15" x="371" y="407"/><rect fill="#F1F1F1" height="2" style="stroke:#181818;stroke-width:0.5;" width="4" x="369" y="409"/><rect fill="#F1F1F1" height="2" style="stroke:#181818;stroke-width:0.5;" width="4" x="369" y="413"/><text fill="#000000" font-family="sans-serif" font-size="14" lengthAdjust="spacing" textLength="64" x="302" y="434.9951">Filtering()</text></g><!--MD5=[98a1666744ca2f19e53bc0a5ce4a81cb]
entity sel--><g id="elem_sel"><rect fill="#F1F1F1" height="46.2969" rx="2.5" ry="2.5" style="stroke:#181818;stroke-width:0.5;" width="114" x="23" y="402"/><rect fill="#F1F1F1" height="10" style="stroke:#181818;stroke-width:0.5;" width="15" x="117" y="407"/><rect fill="#F1F1F1" height="2" style="stroke:#181818;stroke-width:0.5;" width="4" x="115" y="409"/><rect fill="#F1F1F1" height="2" style="stroke:#181818;stroke-width:0.5;" width="4" x="115" y="413"/><text fill="#000000" font-family="sans-serif" font-size="14" lengthAdjust="spacing" textLength="74" x="38" y="434.9951">Selecting()</text></g><!--MD5=[60764d76c93dd4b5178393b2ae87f2c6]
entity listen--><g id="elem_listen"><rect fill="#F1F1F1" height="62.5938" rx="2.5" ry="2.5" style="stroke:#181818;stroke-width:0.5;" width="112" x="138" y="271"/><rect fill="#F1F1F1" height="10" style="stroke:#181818;stroke-width:0.5;" width="15" x="230" y="276"/><rect fill="#F1F1F1" height="2" style="stroke:#181818;stroke-width:0.5;" width="4" x="228" y="278"/><rect fill="#F1F1F1" height="2" style="stroke:#181818;stroke-width:0.5;" width="4" x="228" y="282"/><text fill="#000000" font-family="sans-serif" font-size="14" lengthAdjust="spacing" textLength="64" x="153" y="303.9951">Samples-</text><text fill="#000000" font-family="sans-serif" font-size="14" lengthAdjust="spacing" textLength="72" x="153" y="320.292">Listening()</text></g><!--MD5=[62d5b04920c444814fafa1dbf06b35cd]
entity send--><g id="elem_send"><rect fill="#F1F1F1" height="62.5938" rx="2.5" ry="2.5" style="stroke:#181818;stroke-width:0.5;" width="107" x="285.5" y="271"/><rect fill="#F1F1F1" height="10" style="stroke:#181818;stroke-width:0.5;" width="15" x="372.5" y="276"/><rect fill="#F1F1F1" height="2" style="stroke:#181818;stroke-width:0.5;" width="4" x="370.5" y="278"/><rect fill="#F1F1F1" height="2" style="stroke:#181818;stroke-width:0.5;" width="4" x="370.5" y="282"/><text fill="#000000" font-family="sans-serif" font-size="14" lengthAdjust="spacing" textLength="64" x="300.5" y="303.9951">Samples-</text><text fill="#000000" font-family="sans-serif" font-size="14" lengthAdjust="spacing" textLength="67" x="300.5" y="320.292">Sending()</text></g><!--MD5=[6fdc15404b7db04ee57a19f31f377acb]
entity adc--><g id="elem_adc"><rect fill="#F1F1F1" height="62.5938" rx="2.5" ry="2.5" style="stroke:#181818;stroke-width:0.5;" width="125" x="119.5" y="516"/><rect fill="#F1F1F1" height="10" style="stroke:#181818;stroke-width:0.5;" width="15" x="224.5" y="521"/><rect fill="#F1F1F1" height="2" style="stroke:#181818;stroke-width:0.5;" width="4" x="222.5" y="523"/><rect fill="#F1F1F1" height="2" style="stroke:#181818;stroke-width:0.5;" width="4" x="222.5" y="527"/><text fill="#000000" font-family="sans-serif" font-size="14" lengthAdjust="spacing" textLength="73" x="134.5" y="548.9951">Sampling()</text><text fill="#000000" font-family="sans-serif" font-size="14" lengthAdjust="spacing" textLength="85" x="134.5" y="565.292">(ADC / DMA)</text></g><!--MD5=[9d986ba0f27b6c53af29a9efbb55ef40]
entity ser--><g id="elem_ser"><rect fill="#F1F1F1" height="62.5938" rx="2.5" ry="2.5" style="stroke:#181818;stroke-width:0.5;" width="119" x="279.5" y="516"/><rect fill="#F1F1F1" height="10" style="stroke:#181818;stroke-width:0.5;" width="15" x="378.5" y="521"/><rect fill="#F1F1F1" height="2" style="stroke:#181818;stroke-width:0.5;" width="4" x="376.5" y="523"/><rect fill="#F1F1F1" height="2" style="stroke:#181818;stroke-width:0.5;" width="4" x="376.5" y="527"/><text fill="#000000" font-family="sans-serif" font-size="14" lengthAdjust="spacing" textLength="48" x="294.5" y="548.9951">DMA +</text><text fill="#000000" font-family="sans-serif" font-size="14" lengthAdjust="spacing" textLength="79" x="294.5" y="565.292">Serializing()</text></g><!--MD5=[0338c9a02fbcdade3210a4c60e322da4]
entity filtAA--><g id="elem_filtAA"><rect fill="#F1F1F1" height="95.1875" rx="2.5" ry="2.5" style="stroke:#181818;stroke-width:0.5;" width="131" x="107.5" y="686"/><rect fill="#F1F1F1" height="10" style="stroke:#181818;stroke-width:0.5;" width="15" x="218.5" y="691"/><rect fill="#F1F1F1" height="2" style="stroke:#181818;stroke-width:0.5;" width="4" x="216.5" y="693"/><rect fill="#F1F1F1" height="2" style="stroke:#181818;stroke-width:0.5;" width="4" x="216.5" y="697"/><text fill="#000000" font-family="sans-serif" font-size="14" lengthAdjust="spacing" textLength="83" x="122.5" y="718.9951">Anti-Aliasing</text><text fill="#000000" font-family="sans-serif" font-size="14" lengthAdjust="spacing" textLength="33" x="122.5" y="735.292">Filter</text><text fill="#000000" font-family="sans-serif" font-size="14" lengthAdjust="spacing" textLength="48" x="122.5" y="751.5889">IN_ENV</text><text fill="#000000" font-family="sans-serif" font-size="14" lengthAdjust="spacing" textLength="91" x="122.5" y="767.8857">Pressure: HH</text></g><!--MD5=[82b077934ba7eb1bb3eb8dd45adb7ad1]
entity dac--><g id="elem_dac"><rect fill="#F1F1F1" height="111.4844" rx="2.5" ry="2.5" style="stroke:#181818;stroke-width:0.5;" width="146" x="274" y="678"/><rect fill="#F1F1F1" height="10" style="stroke:#181818;stroke-width:0.5;" width="15" x="400" y="683"/><rect fill="#F1F1F1" height="2" style="stroke:#181818;stroke-width:0.5;" width="4" x="398" y="685"/><rect fill="#F1F1F1" height="2" style="stroke:#181818;stroke-width:0.5;" width="4" x="398" y="689"/><text fill="#000000" font-family="sans-serif" font-size="14" lengthAdjust="spacing" textLength="46" x="289" y="710.9951">DAC +</text><text fill="#000000" font-family="sans-serif" font-size="14" lengthAdjust="spacing" textLength="106" x="289" y="727.292">Reconstruction</text><text fill="#000000" font-family="sans-serif" font-size="14" lengthAdjust="spacing" textLength="33" x="289" y="743.5889">Filter</text><text fill="#000000" font-family="sans-serif" font-size="14" lengthAdjust="spacing" textLength="65" x="289" y="759.8857">OUT_ENV</text><text fill="#000000" font-family="sans-serif" font-size="14" lengthAdjust="spacing" textLength="85" x="289" y="776.1826">Pressure: LL</text></g><!--MD5=[f991004f454c7ce3b850adfb1b0091bb]
link gen to visu--><!--MD5=[c57b0ad4b52d97daa44c3a3daf737acc]
link sel to bufIn--><g id="link_sel_bufIn"><path d="M137.23,425 C147.18,425 157.13,425 167.08,425 " fill="none" id="sel-to-bufIn" style="stroke:#181818;stroke-width:1.0;"/><polygon fill="#181818" points="172.28,425,163.28,421,167.28,425,163.28,429,172.28,425" style="stroke:#181818;stroke-width:1.0;"/></g><!--MD5=[4ea088d59c99644f178b6d5b2386f95e]
link bufIn to filt--><g id="link_bufIn_filt"><path d="M251.69,425 C261.66,425 271.63,425 281.6,425 " fill="none" id="bufIn-to-filt" style="stroke:#181818;stroke-width:1.0;"/><polygon fill="#181818" points="286.82,425,277.82,421,281.82,425,277.82,429,286.82,425" style="stroke:#181818;stroke-width:1.0;"/></g><!--MD5=[c3aac19d6c19b1bbcfbadd62667ac6a0]
link filt to bufOut--><g id="link_filt_bufOut"><path d="M391.09,425 C401.14,425 411.19,425 421.24,425 " fill="none" id="filt-to-bufOut" style="stroke:#181818;stroke-width:1.0;"/><polygon fill="#181818" points="426.5,425,417.5,421,421.5,425,417.5,429,426.5,425" style="stroke:#181818;stroke-width:1.0;"/></g><!--MD5=[581d41cb6762ba25016fc66e235d5347]
reverse link sel to adc--><g id="link_sel_adc"><path d="M102.21,452.24 C118.08,470.98 139.47,496.26 156.11,515.92 " fill="none" id="sel-backto-adc" style="stroke:#181818;stroke-width:1.0;stroke-dasharray:7.0,7.0;"/><polygon fill="#181818" points="98.71,448.1,101.4715,457.5538,101.9404,451.9164,107.5777,452.3852,98.71,448.1" style="stroke:#181818;stroke-width:1.0;"/></g><!--MD5=[2db480cbc450f0fcbb066215edb939a6]
link bufOut to ser--><g id="link_bufOut_ser"><path d="M434.28,456.1 C416.23,473.22 393.57,494.72 374.88,512.46 " fill="none" id="bufOut-to-ser" style="stroke:#181818;stroke-width:1.0;stroke-dasharray:7.0,7.0;"/><polygon fill="#181818" points="371.2,515.95,380.482,512.657,374.8271,512.5085,374.9756,506.8536,371.2,515.95" style="stroke:#181818;stroke-width:1.0;"/></g><!--MD5=[5edd2d9f8423aebf5b9f58e6604f6b1b]
link listen to sel--><g id="link_listen_sel"><path d="M164.94,334.22 C146.26,353.96 122.27,379.32 104.55,398.05 " fill="none" id="listen-to-sel" style="stroke:#181818;stroke-width:1.0;"/><polygon fill="#181818" points="101.09,401.71,110.1864,397.9344,104.5315,398.0829,104.383,392.428,101.09,401.71" style="stroke:#181818;stroke-width:1.0;"/></g><!--MD5=[892ec069977b669e18bda8acd8264337]
reverse link send to bufOut--><g id="link_send_bufOut"><path d="M375.04,337.7 C393.65,355.35 416.15,376.71 434.12,393.75 " fill="none" id="send-backto-bufOut" style="stroke:#181818;stroke-width:1.0;"/><polygon fill="#181818" points="371.38,334.22,375.1556,343.3164,375.0071,337.6615,380.662,337.513,371.38,334.22" style="stroke:#181818;stroke-width:1.0;"/></g><!--MD5=[51788f314beafbae6f0cbd9c33a338aa]
link send to filt--><!--MD5=[97cd8302718f30ed3d30284bd2079ec8]
link filt to ser--><!--MD5=[cc186886d0d91ac8552e50471f0b49df]
link gen to listen--><g id="link_gen_listen"><path d="M184.65,137.07 C186.85,175.82 189.94,230.19 191.96,265.62 " fill="none" id="gen-to-listen" style="stroke:#181818;stroke-width:1.0;"/><polygon fill="#181818" points="192.25,270.71,195.7285,261.4959,191.9639,265.7182,187.7416,261.9536,192.25,270.71" style="stroke:#181818;stroke-width:1.0;"/></g><!--MD5=[a25f40ff57468fe40fde1b3823e9cd63]
reverse link visu to send--><g id="link_visu_send"><path d="M348.49,134.58 C346.17,175.41 342.78,235.08 340.74,270.91 " fill="none" id="visu-backto-send" style="stroke:#181818;stroke-width:1.0;"/><polygon fill="#181818" points="348.8,129.2,344.2916,137.9564,348.5139,134.1918,352.2785,138.4141,348.8,129.2" style="stroke:#181818;stroke-width:1.0;"/></g><!--MD5=[fb996e6ea9647d2623660ce7a655a84f]
reverse link adc to filtAA--><g id="link_adc_filtAA"><path d="M180.24,584.55 C178.82,613.47 176.83,654.27 175.29,685.7 " fill="none" id="adc-backto-filtAA" style="stroke:#181818;stroke-width:1.0;stroke-dasharray:7.0,7.0;"/><polygon fill="#181818" points="180.49,579.3,176.0581,588.0953,180.2474,584.2941,184.0487,588.4835,180.49,579.3" style="stroke:#181818;stroke-width:1.0;"/></g><!--MD5=[9069e1bb13c87116593524f8b212e7ae]
link ser to dac--><g id="link_ser_dac"><path d="M340.34,579.3 C341.44,604.64 343.04,641.31 344.39,672.42 " fill="none" id="ser-to-dac" style="stroke:#181818;stroke-width:1.0;stroke-dasharray:7.0,7.0;"/><polygon fill="#181818" points="344.62,677.76,348.231,668.597,344.4059,672.7646,340.2383,668.9395,344.62,677.76" style="stroke:#181818;stroke-width:1.0;"/></g><rect fill="none" height="23.2813" style="stroke:none;stroke-width:1.0;" width="321" x="96" y="810"/><text fill="#888888" font-family="sans-serif" font-size="10" font-weight="bold" lengthAdjust="spacing" textLength="72" x="96" y="819.2822">Architecture</text><text fill="#888888" font-family="sans-serif" font-size="10" lengthAdjust="spacing" textLength="243" x="171" y="819.2822">Digital Signal Processing Hardware and Simulation</text><text fill="#888888" font-family="sans-serif" font-size="10" lengthAdjust="spacing" textLength="167" x="173" y="830.9229">(C) DSP-Crowd Electronics GmbH</text><!--MD5=[85c7f7b1ecae461456cc7897895bf920]
@startuml

' skinparam linetype ortho

component "PC - Simulating()" as pc {
  component "Signal-\nGenerating()\nIN_PC\nPressure: HH/H" as gen
  component "Visualizing()\nOUT_PC\nPressure: L" as visu

  gen -[hidden] visu
}

component "ESP32S3 - AudioProcessing()" as esp {
  database "Input\nSamples" as bufIn
  database "Output\nSamples" as bufOut
  component "Filtering()" as filt
  component "Selecting()" as sel

  component "Simulation-\nInteracting()" as simuInteract {
    component "Samples-\nListening()" as listen
    component "Samples-\nSending()" as send
  }

  component "Hardware Modules" as modHw {
    component "Sampling()\n(ADC / DMA)" as adc
    component "DMA +\nSerializing()" as ser
  }

  sel -> bufIn
  bufIn -> filt
  filt -> bufOut

  sel <.. adc
  bufOut ..> ser

  listen - -> sel
  send <- - bufOut

  send -[hidden]- filt
  filt -[hidden]- ser
}

component "Environment" as env {
  component "Anti-Aliasing\nFilter\nIN_ENV\nPressure: HH" as filtAA
  component "DAC +\nReconstruction\nFilter\nOUT_ENV\nPressure: LL" as dac
}

gen - -> listen
visu <- - send

adc <.. filtAA
ser ..> dac

footer **Architecture** Digital Signal Processing Hardware and Simulation \n(C) DSP-Crowd Electronics GmbH

@enduml

@startuml


component "PC - Simulating()" as pc {
  component "Signal-\nGenerating()\nIN_PC\nPressure: HH/H" as gen
  component "Visualizing()\nOUT_PC\nPressure: L" as visu

  gen -[hidden] visu
}

component "ESP32S3 - AudioProcessing()" as esp {
  database "Input\nSamples" as bufIn
  database "Output\nSamples" as bufOut
  component "Filtering()" as filt
  component "Selecting()" as sel

  component "Simulation-\nInteracting()" as simuInteract {
    component "Samples-\nListening()" as listen
    component "Samples-\nSending()" as send
  }

  component "Hardware Modules" as modHw {
    component "Sampling()\n(ADC / DMA)" as adc
    component "DMA +\nSerializing()" as ser
  }

  sel -> bufIn
  bufIn -> filt
  filt -> bufOut

  sel <.. adc
  bufOut ..> ser

  listen - -> sel
  send <- - bufOut

  send -[hidden]- filt
  filt -[hidden]- ser
}

component "Environment" as env {
  component "Anti-Aliasing\nFilter\nIN_ENV\nPressure: HH" as filtAA
  component "DAC +\nReconstruction\nFilter\nOUT_ENV\nPressure: LL" as dac
}

gen - -> listen
visu <- - send

adc <.. filtAA
ser ..> dac

footer **Architecture** Digital Signal Processing Hardware and Simulation \n(C) DSP-Crowd Electronics GmbH

@enduml

PlantUML version 1.2022.7(Mon Aug 22 19:01:30 CEST 2022)
(GPL source distribution)
Java Runtime: OpenJDK Runtime Environment
JVM: OpenJDK 64-Bit Server VM
Default Encoding: UTF-8
Language: en
Country: US
--></g></svg>