<?xml version="1.0" encoding="UTF-8" standalone="no"?><svg xmlns="http://www.w3.org/2000/svg" xmlns:xlink="http://www.w3.org/1999/xlink" contentStyleType="text/css" height="809px" preserveAspectRatio="none" style="width:527px;height:809px;background:#FFFFFF;" version="1.1" viewBox="0 0 527 809" width="527px" zoomAndPan="magnify"><defs/><g><!--MD5=[b7b14e8444e3c5d78ccf181a2614e889]
cluster pc--><g id="cluster_pc"><rect fill="none" height="130" rx="2.5" ry="2.5" style="stroke:#181818;stroke-width:1.0;" width="317" x="105" y="7"/><rect fill="none" height="10" style="stroke:#181818;stroke-width:1.0;" width="15" x="402" y="12"/><rect fill="none" height="2" style="stroke:#181818;stroke-width:1.0;" width="4" x="400" y="14"/><rect fill="none" height="2" style="stroke:#181818;stroke-width:1.0;" width="4" x="400" y="18"/><text fill="#000000" font-family="sans-serif" font-size="14" font-weight="bold" lengthAdjust="spacing" textLength="130" x="198.5" y="32.9951">PC - Simulating()</text></g><!--MD5=[3d67b846272ab09c325a505f02535bd7]
cluster esp--><g id="cluster_esp"><rect fill="none" height="442" rx="2.5" ry="2.5" style="stroke:#181818;stroke-width:1.0;" width="514" x="7" y="161"/><rect fill="none" height="10" style="stroke:#181818;stroke-width:1.0;" width="15" x="501" y="166"/><rect fill="none" height="2" style="stroke:#181818;stroke-width:1.0;" width="4" x="499" y="168"/><rect fill="none" height="2" style="stroke:#181818;stroke-width:1.0;" width="4" x="499" y="172"/><text fill="#000000" font-family="sans-serif" font-size="14" font-weight="bold" lengthAdjust="spacing" textLength="230" x="149" y="186.9951">ESP32S3 - AudioProcessing()</text></g><!--MD5=[c0077f6813694e07686934813ebe6dec]
cluster simuInteract--><g id="cluster_simuInteract"><rect fill="none" height="130" rx="2.5" ry="2.5" style="stroke:#181818;stroke-width:1.0;" width="286" x="121" y="204"/><rect fill="none" height="10" style="stroke:#181818;stroke-width:1.0;" width="15" x="387" y="209"/><rect fill="none" height="2" style="stroke:#181818;stroke-width:1.0;" width="4" x="385" y="211"/><rect fill="none" height="2" style="stroke:#181818;stroke-width:1.0;" width="4" x="385" y="215"/><text fill="#000000" font-family="sans-serif" font-size="14" font-weight="bold" lengthAdjust="spacing" textLength="87" x="220.5" y="229.9951">Simulation-</text><text fill="#000000" font-family="sans-serif" font-size="14" font-weight="bold" lengthAdjust="spacing" textLength="97" x="215.5" y="246.292">Interacting()</text></g><!--MD5=[e932970d038ebbf457051c8f47705e58]
cluster modHw--><g id="cluster_modHw"><rect fill="none" height="114" rx="2.5" ry="2.5" style="stroke:#181818;stroke-width:1.0;" width="312" x="108" y="465"/><rect fill="none" height="10" style="stroke:#181818;stroke-width:1.0;" width="15" x="400" y="470"/><rect fill="none" height="2" style="stroke:#181818;stroke-width:1.0;" width="4" x="398" y="472"/><rect fill="none" height="2" style="stroke:#181818;stroke-width:1.0;" width="4" x="398" y="476"/><text fill="#000000" font-family="sans-serif" font-size="14" font-weight="bold" lengthAdjust="spacing" textLength="148" x="190" y="490.9951">Hardware Modules</text></g><!--MD5=[a5f6d7e9f88b7365548164145cca9219]
cluster env--><g id="cluster_env"><rect fill="none" height="146" rx="2.5" ry="2.5" style="stroke:#181818;stroke-width:1.0;" width="337" x="102" y="627"/><rect fill="none" height="10" style="stroke:#181818;stroke-width:1.0;" width="15" x="419" y="632"/><rect fill="none" height="2" style="stroke:#181818;stroke-width:1.0;" width="4" x="417" y="634"/><rect fill="none" height="2" style="stroke:#181818;stroke-width:1.0;" width="4" x="417" y="638"/><text fill="#000000" font-family="sans-serif" font-size="14" font-weight="bold" lengthAdjust="spacing" textLength="99" x="221" y="652.9951">Environment</text></g><!--MD5=[7b505e697edd1b38401663ff5952a287]
entity gen--><g id="elem_gen"><rect fill="#F1F1F1" height="78.8906" rx="2.5" ry="2.5" style="stroke:#181818;stroke-width:0.5;" width="127" x="121.5" y="42"/><rect fill="#F1F1F1" height="10" style="stroke:#181818;stroke-width:0.5;" width="15" x="228.5" y="47"/><rect fill="#F1F1F1" height="2" style="stroke:#181818;stroke-width:0.5;" width="4" x="226.5" y="49"/><rect fill="#F1F1F1" height="2" style="stroke:#181818;stroke-width:0.5;" width="4" x="226.5" y="53"/><text fill="#000000" font-family="sans-serif" font-size="14" lengthAdjust="spacing" textLength="46" x="136.5" y="74.9951">Signal-</text><text fill="#000000" font-family="sans-serif" font-size="14" lengthAdjust="spacing" textLength="87" x="136.5" y="91.292">Generating()</text><text fill="#000000" font-family="sans-serif" font-size="14" lengthAdjust="spacing" textLength="39" x="136.5" y="107.5889">IN_PC</text></g><!--MD5=[7dc3992a0919d1d9128bba8bea2deff4]
entity visu--><g id="elem_visu"><rect fill="#F1F1F1" height="62.5938" rx="2.5" ry="2.5" style="stroke:#181818;stroke-width:0.5;" width="122" x="284" y="50"/><rect fill="#F1F1F1" height="10" style="stroke:#181818;stroke-width:0.5;" width="15" x="386" y="55"/><rect fill="#F1F1F1" height="2" style="stroke:#181818;stroke-width:0.5;" width="4" x="384" y="57"/><rect fill="#F1F1F1" height="2" style="stroke:#181818;stroke-width:0.5;" width="4" x="384" y="61"/><text fill="#000000" font-family="sans-serif" font-size="14" lengthAdjust="spacing" textLength="82" x="299" y="82.9951">Visualizing()</text><text fill="#000000" font-family="sans-serif" font-size="14" lengthAdjust="spacing" textLength="56" x="299" y="99.292">OUT_PC</text></g><!--MD5=[e136345145b61cd65a89eb6c415139fa]
entity bufIn--><g id="elem_bufIn"><path d="M172.5,388 C172.5,378 212,378 212,378 C212,378 251.5,378 251.5,388 L251.5,429.5938 C251.5,439.5938 212,439.5938 212,439.5938 C212,439.5938 172.5,439.5938 172.5,429.5938 L172.5,388 " fill="#F1F1F1" style="stroke:#181818;stroke-width:0.5;"/><path d="M172.5,388 C172.5,398 212,398 212,398 C212,398 251.5,398 251.5,388 " fill="none" style="stroke:#181818;stroke-width:0.5;"/><text fill="#000000" font-family="sans-serif" font-size="14" lengthAdjust="spacing" textLength="35" x="182.5" y="414.9951">Input</text><text fill="#000000" font-family="sans-serif" font-size="14" lengthAdjust="spacing" textLength="59" x="182.5" y="431.292">Samples</text></g><!--MD5=[ef86aff22a4856bf26edc48518e80162]
entity bufOut--><g id="elem_bufOut"><path d="M426.5,388 C426.5,378 466,378 466,378 C466,378 505.5,378 505.5,388 L505.5,429.5938 C505.5,439.5938 466,439.5938 466,439.5938 C466,439.5938 426.5,439.5938 426.5,429.5938 L426.5,388 " fill="#F1F1F1" style="stroke:#181818;stroke-width:0.5;"/><path d="M426.5,388 C426.5,398 466,398 466,398 C466,398 505.5,398 505.5,388 " fill="none" style="stroke:#181818;stroke-width:0.5;"/><text fill="#000000" font-family="sans-serif" font-size="14" lengthAdjust="spacing" textLength="48" x="436.5" y="414.9951">Output</text><text fill="#000000" font-family="sans-serif" font-size="14" lengthAdjust="spacing" textLength="59" x="436.5" y="431.292">Samples</text></g><!--MD5=[12a9b159d5f578c3da1800f0ab612f08]
entity filt--><g id="elem_filt"><rect fill="#F1F1F1" height="46.2969" rx="2.5" ry="2.5" style="stroke:#181818;stroke-width:0.5;" width="104" x="287" y="386"/><rect fill="#F1F1F1" height="10" style="stroke:#181818;stroke-width:0.5;" width="15" x="371" y="391"/><rect fill="#F1F1F1" height="2" style="stroke:#181818;stroke-width:0.5;" width="4" x="369" y="393"/><rect fill="#F1F1F1" height="2" style="stroke:#181818;stroke-width:0.5;" width="4" x="369" y="397"/><text fill="#000000" font-family="sans-serif" font-size="14" lengthAdjust="spacing" textLength="64" x="302" y="418.9951">Filtering()</text></g><!--MD5=[98a1666744ca2f19e53bc0a5ce4a81cb]
entity sel--><g id="elem_sel"><rect fill="#F1F1F1" height="46.2969" rx="2.5" ry="2.5" style="stroke:#181818;stroke-width:0.5;" width="114" x="23" y="386"/><rect fill="#F1F1F1" height="10" style="stroke:#181818;stroke-width:0.5;" width="15" x="117" y="391"/><rect fill="#F1F1F1" height="2" style="stroke:#181818;stroke-width:0.5;" width="4" x="115" y="393"/><rect fill="#F1F1F1" height="2" style="stroke:#181818;stroke-width:0.5;" width="4" x="115" y="397"/><text fill="#000000" font-family="sans-serif" font-size="14" lengthAdjust="spacing" textLength="74" x="38" y="418.9951">Selecting()</text></g><!--MD5=[60764d76c93dd4b5178393b2ae87f2c6]
entity listen--><g id="elem_listen"><rect fill="#F1F1F1" height="62.5938" rx="2.5" ry="2.5" style="stroke:#181818;stroke-width:0.5;" width="112" x="137" y="255"/><rect fill="#F1F1F1" height="10" style="stroke:#181818;stroke-width:0.5;" width="15" x="229" y="260"/><rect fill="#F1F1F1" height="2" style="stroke:#181818;stroke-width:0.5;" width="4" x="227" y="262"/><rect fill="#F1F1F1" height="2" style="stroke:#181818;stroke-width:0.5;" width="4" x="227" y="266"/><text fill="#000000" font-family="sans-serif" font-size="14" lengthAdjust="spacing" textLength="64" x="152" y="287.9951">Samples-</text><text fill="#000000" font-family="sans-serif" font-size="14" lengthAdjust="spacing" textLength="72" x="152" y="304.292">Listening()</text></g><!--MD5=[62d5b04920c444814fafa1dbf06b35cd]
entity send--><g id="elem_send"><rect fill="#F1F1F1" height="62.5938" rx="2.5" ry="2.5" style="stroke:#181818;stroke-width:0.5;" width="107" x="284.5" y="255"/><rect fill="#F1F1F1" height="10" style="stroke:#181818;stroke-width:0.5;" width="15" x="371.5" y="260"/><rect fill="#F1F1F1" height="2" style="stroke:#181818;stroke-width:0.5;" width="4" x="369.5" y="262"/><rect fill="#F1F1F1" height="2" style="stroke:#181818;stroke-width:0.5;" width="4" x="369.5" y="266"/><text fill="#000000" font-family="sans-serif" font-size="14" lengthAdjust="spacing" textLength="64" x="299.5" y="287.9951">Samples-</text><text fill="#000000" font-family="sans-serif" font-size="14" lengthAdjust="spacing" textLength="67" x="299.5" y="304.292">Sending()</text></g><!--MD5=[6fdc15404b7db04ee57a19f31f377acb]
entity adc--><g id="elem_adc"><rect fill="#F1F1F1" height="62.5938" rx="2.5" ry="2.5" style="stroke:#181818;stroke-width:0.5;" width="125" x="124.5" y="500"/><rect fill="#F1F1F1" height="10" style="stroke:#181818;stroke-width:0.5;" width="15" x="229.5" y="505"/><rect fill="#F1F1F1" height="2" style="stroke:#181818;stroke-width:0.5;" width="4" x="227.5" y="507"/><rect fill="#F1F1F1" height="2" style="stroke:#181818;stroke-width:0.5;" width="4" x="227.5" y="511"/><text fill="#000000" font-family="sans-serif" font-size="14" lengthAdjust="spacing" textLength="73" x="139.5" y="532.9951">Sampling()</text><text fill="#000000" font-family="sans-serif" font-size="14" lengthAdjust="spacing" textLength="85" x="139.5" y="549.292">(ADC / DMA)</text></g><!--MD5=[9d986ba0f27b6c53af29a9efbb55ef40]
entity ser--><g id="elem_ser"><rect fill="#F1F1F1" height="62.5938" rx="2.5" ry="2.5" style="stroke:#181818;stroke-width:0.5;" width="119" x="284.5" y="500"/><rect fill="#F1F1F1" height="10" style="stroke:#181818;stroke-width:0.5;" width="15" x="383.5" y="505"/><rect fill="#F1F1F1" height="2" style="stroke:#181818;stroke-width:0.5;" width="4" x="381.5" y="507"/><rect fill="#F1F1F1" height="2" style="stroke:#181818;stroke-width:0.5;" width="4" x="381.5" y="511"/><text fill="#000000" font-family="sans-serif" font-size="14" lengthAdjust="spacing" textLength="48" x="299.5" y="532.9951">DMA +</text><text fill="#000000" font-family="sans-serif" font-size="14" lengthAdjust="spacing" textLength="79" x="299.5" y="549.292">Serializing()</text></g><!--MD5=[0338c9a02fbcdade3210a4c60e322da4]
entity filtAA--><g id="elem_filtAA"><rect fill="#F1F1F1" height="78.8906" rx="2.5" ry="2.5" style="stroke:#181818;stroke-width:0.5;" width="123" x="118.5" y="670"/><rect fill="#F1F1F1" height="10" style="stroke:#181818;stroke-width:0.5;" width="15" x="221.5" y="675"/><rect fill="#F1F1F1" height="2" style="stroke:#181818;stroke-width:0.5;" width="4" x="219.5" y="677"/><rect fill="#F1F1F1" height="2" style="stroke:#181818;stroke-width:0.5;" width="4" x="219.5" y="681"/><text fill="#000000" font-family="sans-serif" font-size="14" lengthAdjust="spacing" textLength="83" x="133.5" y="702.9951">Anti-Aliasing</text><text fill="#000000" font-family="sans-serif" font-size="14" lengthAdjust="spacing" textLength="33" x="133.5" y="719.292">Filter</text><text fill="#000000" font-family="sans-serif" font-size="14" lengthAdjust="spacing" textLength="48" x="133.5" y="735.5889">IN_ENV</text></g><!--MD5=[82b077934ba7eb1bb3eb8dd45adb7ad1]
entity dac--><g id="elem_dac"><rect fill="#F1F1F1" height="95.1875" rx="2.5" ry="2.5" style="stroke:#181818;stroke-width:0.5;" width="146" x="277" y="662"/><rect fill="#F1F1F1" height="10" style="stroke:#181818;stroke-width:0.5;" width="15" x="403" y="667"/><rect fill="#F1F1F1" height="2" style="stroke:#181818;stroke-width:0.5;" width="4" x="401" y="669"/><rect fill="#F1F1F1" height="2" style="stroke:#181818;stroke-width:0.5;" width="4" x="401" y="673"/><text fill="#000000" font-family="sans-serif" font-size="14" lengthAdjust="spacing" textLength="46" x="292" y="694.9951">DAC +</text><text fill="#000000" font-family="sans-serif" font-size="14" lengthAdjust="spacing" textLength="106" x="292" y="711.292">Reconstruction</text><text fill="#000000" font-family="sans-serif" font-size="14" lengthAdjust="spacing" textLength="33" x="292" y="727.5889">Filter</text><text fill="#000000" font-family="sans-serif" font-size="14" lengthAdjust="spacing" textLength="65" x="292" y="743.8857">OUT_ENV</text></g><!--MD5=[f991004f454c7ce3b850adfb1b0091bb]
link gen to visu--><!--MD5=[c57b0ad4b52d97daa44c3a3daf737acc]
link sel to bufIn--><g id="link_sel_bufIn"><path d="M137.23,409 C147.18,409 157.13,409 167.08,409 " fill="none" id="sel-to-bufIn" style="stroke:#181818;stroke-width:1.0;"/><polygon fill="#181818" points="172.28,409,163.28,405,167.28,409,163.28,413,172.28,409" style="stroke:#181818;stroke-width:1.0;"/></g><!--MD5=[4ea088d59c99644f178b6d5b2386f95e]
link bufIn to filt--><g id="link_bufIn_filt"><path d="M251.69,409 C261.66,409 271.63,409 281.6,409 " fill="none" id="bufIn-to-filt" style="stroke:#181818;stroke-width:1.0;"/><polygon fill="#181818" points="286.82,409,277.82,405,281.82,409,277.82,413,286.82,409" style="stroke:#181818;stroke-width:1.0;"/></g><!--MD5=[c3aac19d6c19b1bbcfbadd62667ac6a0]
link filt to bufOut--><g id="link_filt_bufOut"><path d="M391.09,409 C401.14,409 411.19,409 421.24,409 " fill="none" id="filt-to-bufOut" style="stroke:#181818;stroke-width:1.0;"/><polygon fill="#181818" points="426.5,409,417.5,405,421.5,409,417.5,413,426.5,409" style="stroke:#181818;stroke-width:1.0;"/></g><!--MD5=[581d41cb6762ba25016fc66e235d5347]
reverse link sel to adc--><g id="link_sel_adc"><path d="M103.3,436.24 C119.94,454.98 142.39,480.26 159.84,499.92 " fill="none" id="sel-backto-adc" style="stroke:#181818;stroke-width:1.0;stroke-dasharray:7.0,7.0;"/><polygon fill="#181818" points="99.63,432.1,102.6196,441.4841,102.9518,435.837,108.5989,436.1692,99.63,432.1" style="stroke:#181818;stroke-width:1.0;"/></g><!--MD5=[2db480cbc450f0fcbb066215edb939a6]
link bufOut to ser--><g id="link_bufOut_ser"><path d="M435.53,440.1 C418.34,457.08 396.79,478.36 378.92,496.01 " fill="none" id="bufOut-to-ser" style="stroke:#181818;stroke-width:1.0;stroke-dasharray:7.0,7.0;"/><polygon fill="#181818" points="374.93,499.95,384.1436,496.4702,378.4869,496.436,378.5212,490.7792,374.93,499.95" style="stroke:#181818;stroke-width:1.0;"/></g><!--MD5=[5edd2d9f8423aebf5b9f58e6604f6b1b]
link listen to sel--><g id="link_listen_sel"><path d="M164.19,318.22 C145.68,337.96 121.9,363.32 104.33,382.05 " fill="none" id="listen-to-sel" style="stroke:#181818;stroke-width:1.0;"/><polygon fill="#181818" points="100.91,385.71,109.9911,381.8977,104.3368,382.069,104.1655,376.4147,100.91,385.71" style="stroke:#181818;stroke-width:1.0;"/></g><!--MD5=[892ec069977b669e18bda8acd8264337]
reverse link send to bufOut--><g id="link_send_bufOut"><path d="M374.33,321.7 C393.08,339.35 415.76,360.71 433.87,377.75 " fill="none" id="send-backto-bufOut" style="stroke:#181818;stroke-width:1.0;"/><polygon fill="#181818" points="370.63,318.22,374.4423,327.3011,374.271,321.6468,379.9253,321.4755,370.63,318.22" style="stroke:#181818;stroke-width:1.0;"/></g><!--MD5=[cc186886d0d91ac8552e50471f0b49df]
link gen to listen--><g id="link_gen_listen"><path d="M186.52,121.16 C187.98,158.22 190.17,213.71 191.59,249.76 " fill="none" id="gen-to-listen" style="stroke:#181818;stroke-width:1.0;"/><polygon fill="#181818" points="191.8,254.93,195.4632,245.7877,191.6144,249.9334,187.4687,246.0847,191.8,254.93" style="stroke:#181818;stroke-width:1.0;"/></g><!--MD5=[a25f40ff57468fe40fde1b3823e9cd63]
reverse link visu to send--><g id="link_visu_send"><path d="M343.76,118.41 C342.43,157.12 340.32,218.11 339.06,254.71 " fill="none" id="visu-backto-send" style="stroke:#181818;stroke-width:1.0;"/><polygon fill="#181818" points="343.94,113.33,339.6331,122.1872,343.7682,118.327,347.6284,122.4621,343.94,113.33" style="stroke:#181818;stroke-width:1.0;"/></g><!--MD5=[fb996e6ea9647d2623660ce7a655a84f]
reverse link adc to filtAA--><g id="link_adc_filtAA"><path d="M185.58,568.15 C184.41,597.69 182.74,639.58 181.54,669.9 " fill="none" id="adc-backto-filtAA" style="stroke:#181818;stroke-width:1.0;stroke-dasharray:7.0,7.0;"/><polygon fill="#181818" points="185.78,563.16,181.4235,571.9929,185.5802,568.156,189.4171,572.3127,185.78,563.16" style="stroke:#181818;stroke-width:1.0;"/></g><!--MD5=[9069e1bb13c87116593524f8b212e7ae]
link ser to dac--><g id="link_ser_dac"><path d="M345.05,563.16 C345.92,588.95 347.2,626.37 348.24,656.79 " fill="none" id="ser-to-dac" style="stroke:#181818;stroke-width:1.0;stroke-dasharray:7.0,7.0;"/><polygon fill="#181818" points="348.41,661.99,352.1245,652.8685,348.2525,656.9925,344.1285,653.1205,348.41,661.99" style="stroke:#181818;stroke-width:1.0;"/></g><rect fill="none" height="23.2813" style="stroke:none;stroke-width:1.0;" width="321" x="96" y="778"/><text fill="#888888" font-family="sans-serif" font-size="10" font-weight="bold" lengthAdjust="spacing" textLength="72" x="96" y="787.2822">Architecture</text><text fill="#888888" font-family="sans-serif" font-size="10" lengthAdjust="spacing" textLength="243" x="171" y="787.2822">Digital Signal Processing Hardware and Simulation</text><text fill="#888888" font-family="sans-serif" font-size="10" lengthAdjust="spacing" textLength="167" x="173" y="798.9229">(C) DSP-Crowd Electronics GmbH</text><!--MD5=[34a08a1a56c93719560cdf5bbb71affb]
@startuml

' skinparam linetype ortho

component "PC - Simulating()" as pc {
  component "Signal-\nGenerating()\nIN_PC" as gen
  component "Visualizing()\nOUT_PC" as visu

  gen -[hidden] visu
}

component "ESP32S3 - AudioProcessing()" as esp {
  database "Input\nSamples" as bufIn
  database "Output\nSamples" as bufOut
  component "Filtering()" as filt
  component "Selecting()" as sel

  component "Simulation-\nInteracting()" as simuInteract {
    component "Samples-\nListening()" as listen
    component "Samples-\nSending()" as send
  }

  component "Hardware Modules" as modHw {
    component "Sampling()\n(ADC / DMA)" as adc
    component "DMA +\nSerializing()" as ser
  }

  sel -> bufIn
  bufIn -> filt
  filt -> bufOut

  sel <.. adc
  bufOut ..> ser
  
  listen - -> sel
  send <- - bufOut
}

component "Environment" as env {
  component "Anti-Aliasing\nFilter\nIN_ENV" as filtAA
  component "DAC +\nReconstruction\nFilter\nOUT_ENV" as dac
}

gen - -> listen
visu <- - send

adc <.. filtAA
ser ..> dac

footer **Architecture** Digital Signal Processing Hardware and Simulation \n(C) DSP-Crowd Electronics GmbH

@enduml

@startuml


component "PC - Simulating()" as pc {
  component "Signal-\nGenerating()\nIN_PC" as gen
  component "Visualizing()\nOUT_PC" as visu

  gen -[hidden] visu
}

component "ESP32S3 - AudioProcessing()" as esp {
  database "Input\nSamples" as bufIn
  database "Output\nSamples" as bufOut
  component "Filtering()" as filt
  component "Selecting()" as sel

  component "Simulation-\nInteracting()" as simuInteract {
    component "Samples-\nListening()" as listen
    component "Samples-\nSending()" as send
  }

  component "Hardware Modules" as modHw {
    component "Sampling()\n(ADC / DMA)" as adc
    component "DMA +\nSerializing()" as ser
  }

  sel -> bufIn
  bufIn -> filt
  filt -> bufOut

  sel <.. adc
  bufOut ..> ser
  
  listen - -> sel
  send <- - bufOut
}

component "Environment" as env {
  component "Anti-Aliasing\nFilter\nIN_ENV" as filtAA
  component "DAC +\nReconstruction\nFilter\nOUT_ENV" as dac
}

gen - -> listen
visu <- - send

adc <.. filtAA
ser ..> dac

footer **Architecture** Digital Signal Processing Hardware and Simulation \n(C) DSP-Crowd Electronics GmbH

@enduml

PlantUML version 1.2022.7(Mon Aug 22 19:01:30 CEST 2022)
(GPL source distribution)
Java Runtime: OpenJDK Runtime Environment
JVM: OpenJDK 64-Bit Server VM
Default Encoding: UTF-8
Language: en
Country: US
--></g></svg>